<svg xmlns="http://www.w3.org/2000/svg" xmlns:xlink="http://www.w3.org/1999/xlink" width="377" height="426" viewBox="0 0 377 426"><clipPath id="cl_3"><rect width="377.46893" height="425.5105"/></clipPath><g clip-path="url(#cl_3)"><defs><linearGradient id="gradient_0" gradientUnits="userSpaceOnUse" x1="381.89594" y1="678.33423" x2="490.70303" y2="423.58542"><stop offset="0" stop-color="#ffffff"/><stop offset="1" stop-color="#cccccc"/></linearGradient></defs><path fill="url(#gradient_0)" transform="matrix(1.37261 0 0 1.37261 -382.959 -551.791)" d="M353.39 418.142C355.822 418.469 356.268 418.47 358.273 419.84C359.525 421.595 383.767 495.896 385.717 503.131C392.958 522.321 398.453 543.912 406.022 563.572L421.892 560.672C419.798 525.281 413.287 486.438 411.876 450.645C411.814 449.07 412.559 446.695 413.203 445.27C415.695 443.274 441.811 439.76 446.33 438.994L479.791 433.399C487.024 432.135 494.44 430.41 501.734 429.768C503.906 429.576 506.897 429.459 508.818 430.598C509.949 431.269 510.59 432.355 510.901 433.611C515.141 450.722 457.609 538.095 447.179 557.039C466.934 555.159 488.024 551.363 507.73 548.383C525.339 545.721 521.125 555.554 520.993 568.4C520.943 573.253 520.625 577.786 520.56 582.454C520.287 600.109 520.541 617.768 521.322 635.408C521.544 640.714 524.077 661.893 521.35 666.967C519.558 670.303 513.889 669.678 510.514 665.96C503.854 658.622 497.358 650.654 490.88 642.862L459.004 604.585C452.016 596.206 444.631 587.013 437.154 579.165C437.633 591.009 443.077 669.173 441.421 673.337C440.743 675.041 439.197 676.205 437.527 676.845C435.776 677.517 433.835 677.551 432.13 676.736C430.311 675.867 429.3 674.219 428.465 672.463C424.626 664.391 422.283 654.815 419.503 646.269C412.052 623.357 405.499 599.812 397.118 577.245C386.685 578.224 368.054 581.534 357.538 583.302C356.484 600.992 355.33 618.676 354.076 636.353C353.614 643.248 353.32 650.695 353.019 657.605C352.604 667.146 338.965 664.776 339.601 657.54C341.704 633.593 344.309 609.303 344.818 585.246C334.254 586.435 324.186 588.537 313.602 590.387C309.368 590.798 292.988 595.677 290.239 592.629C278.133 579.208 305.198 578.708 308.734 578.17L345.735 572.452C346.899 544.674 346.931 516.387 347.544 488.56C347.839 475.178 347.1 460.978 347.593 447.687C347.104 440.378 346.032 431.604 346.876 424.323C347.345 420.274 349.644 419.036 353.39 418.142Z"/><path fill="#aaaaaa" transform="matrix(1.37261 0 0 1.37261 -382.959 -551.791)" d="M353.39 418.142C355.822 418.469 356.268 418.47 358.273 419.84C359.525 421.595 383.767 495.896 385.717 503.131C381.078 499.931 385.665 496.321 378.536 491.936C371.993 487.912 367.897 472.197 363.864 465.855C361.985 462.9 354.403 458.953 351.755 456.201C348.832 453.675 350.052 449.305 349.847 444.403L349.69 444.852C348.978 446.954 348.914 447.62 348.691 449.825L348.318 449.849C348.121 448.91 348.15 448.356 347.593 447.687C347.104 440.378 346.032 431.604 346.876 424.323C347.345 420.274 349.644 419.036 353.39 418.142Z"/><path fill="#dddddd" transform="matrix(1.37261 0 0 1.37261 -382.959 -551.791)" d="M347.593 447.687C347.104 440.378 346.032 431.604 346.876 424.323C347.345 420.274 349.644 419.036 353.39 418.142C351.139 419.812 349.869 420.768 349.627 423.807C349.075 430.713 350.005 437.271 349.847 444.403L349.69 444.852C348.978 446.954 348.914 447.62 348.691 449.825L348.318 449.849C348.121 448.91 348.15 448.356 347.593 447.687Z"/><path fill="#ffffff" transform="matrix(1.37261 0 0 1.37261 -382.959 -551.791)" d="M492.243 444.259C494.161 444.219 493.504 443.856 494.561 444.82C493.297 460.184 444.577 537.598 434.159 553.559C433.772 552.368 433.512 550.087 433.319 548.778C429.793 519.699 426.261 484.574 424.697 455.409C431.414 453.515 445.537 451.425 452.983 450.225C465.285 448.241 480.087 445.301 492.243 444.259Z"/><path fill="#ffffff" transform="matrix(1.37261 0 0 1.37261 -382.959 -551.791)" d="M504.717 561.595C506.178 561.311 507.195 561.202 508.307 562.053C508.591 564.55 508.55 567.237 508.493 569.755C507.927 594.96 508.906 620.035 509.36 645.22C504.385 640.725 487.827 619.916 482.769 613.8C470.638 599.269 457.732 584.657 445.891 570.01C465.426 566.712 485.041 563.906 504.717 561.595Z"/><path fill="#ffffff" transform="matrix(1.37261 0 0 1.37261 -382.959 -551.791)" d="M359.737 467.502C361.734 469.608 392.155 559.402 392.767 564.764C391.288 565.967 389.031 566.044 387.033 566.354C379.829 567.94 366.201 569.614 358.513 570.8C358.435 543.514 359.513 516.204 359.405 488.909C359.376 481.827 359.444 474.577 359.737 467.502Z"/><path fill="#ffffff" transform="matrix(1.37261 0 0 1.37261 -382.959 -551.791)" d="M422.443 573.128L423.523 573.272C425.355 577.062 426.903 620.174 427.327 627.576C425.907 624.64 424.981 621.943 423.877 618.876C419.039 604.847 414.273 589.715 409.8 575.559C414.441 574.431 417.754 573.847 422.443 573.128Z"/></g></svg>